<svg width="65" height="64" viewBox="0 0 65 64" fill="none" xmlns="http://www.w3.org/2000/svg">
<circle cx="32.5" cy="32" r="32" fill="#F0F1FA"/>
<path d="M19.75 23H39.25C40.4688 23 41.5 24.0312 41.5 25.25C41.5 26 41.125 26.6562 40.5625 27.0781L39.9062 27.5469C36.8125 27.875 34.1875 29.8906 33.0625 32.7031L30.3906 34.7188C29.8281 35.1406 29.125 35.1406 28.5625 34.7188L18.3906 27.0781C17.8281 26.6562 17.5 26 17.5 25.25C17.5 24.0312 18.4844 23 19.75 23ZM31.2812 35.9375L32.5 35C32.5 35.2344 32.5 35.5156 32.5 35.75C32.5 37.7656 33.2031 39.5938 34.375 41H20.5C18.8125 41 17.5 39.6875 17.5 38V28.25L27.6719 35.9375C28.75 36.7344 30.2031 36.7344 31.2812 35.9375ZM47.5 35.75C47.5 38.1875 46.1875 40.3906 44.125 41.6094C42.0156 42.8281 39.4375 42.8281 37.375 41.6094C35.2656 40.3906 34 38.1875 34 35.75C34 33.3594 35.2656 31.1562 37.375 29.9375C39.4375 28.7188 42.0156 28.7188 44.125 29.9375C46.1875 31.1562 47.5 33.3594 47.5 35.75ZM43.8906 33.7344C43.6094 33.4531 43.0938 33.4531 42.8125 33.7344L40 36.5938L38.6406 35.2344C38.3594 34.9531 37.8438 34.9531 37.5625 35.2344C37.2812 35.5156 37.2812 36.0312 37.5625 36.3125L39.4375 38.1875C39.7188 38.4688 40.2344 38.4688 40.5156 38.1875L43.8906 34.8125C44.1719 34.5312 44.1719 34.0156 43.8906 33.7344Z" fill="#472BEF"/>
</svg>
